# xmcd CD database file
#
# Track frame offsets:
#	150
#	18313
#	38033
#	63145
#	84862
#	111615
#	130317
#	153567
#	170230
#	193205
#	213437
#	226830
#	251730
#	277500
#	298650
#	313755
#	325715
#
# Disc length: 4653 seconds
#
# Revision: 0
# Processed by: cddbd v1.5.2PL0 Copyright (c) Steve Scherf et al.
# Submitted via: CDex 1.60beta1-cs1
#
DISCID=f0122b11
DTITLE=Ray Charles - The Great Ray Charles
DYEAR=2015
DGENRE=Jazz
TTITLE0=The Ray
TTITLE1=My Melancholy Baby
TTITLE2=Black Coffee
TTITLE3=There's No You
TTITLE4=Doodlin'
TTITLE5=Sweet Sixteen Bars
TTITLE6=I Surrender, Dear
TTITLE7=Undecided
TTITLE8=Dawn Ray
TTITLE9=The Man I Love
TTITLE10=Music, Music, Music
TTITLE11=Hornful Soul
TTITLE12=Ain't Misbehavin'
TTITLE13=Joy Ride
TTITLE14=Moanin'
TTITLE15=Strike Up the Band
TTITLE16=Birth of the Blues
EXTD=YEAR: 2015
EXTT0=
EXTT1=
EXTT2=
EXTT3=
EXTT4=
EXTT5=
EXTT6=
EXTT7=
EXTT8=
EXTT9=
EXTT10=
EXTT11=
EXTT12=
EXTT13=
EXTT14=
EXTT15=
EXTT16=
PLAYORDER=
